<?xml version="1.0" standalone="no"?>
<!DOCTYPE svg PUBLIC "-//W3C//DTD SVG 20010904//EN"
  "http://www.w3.org/TR/2001/REC-SVG-20010904/DTD/svg10.dtd">
<svg version="1.0" xmlns="http://www.w3.org/2000/svg"
     width="1024.000000pt" height="1024.000000pt" viewBox="0 0 1024.000000 1024.000000"
     preserveAspectRatio="xMidYMid meet">

  <g transform="translate(0.000000,1024.000000) scale(0.100000,-0.100000)"
     fill="#000000" stroke="none">
    <path d="M5143 8894 c-4 -2 -91 -5 -193 -8 -211 -6 -295 -21 -389 -68 -81 -42
-122 -98 -146 -200 -15 -63 -16 -112 -11 -358 4 -157 9 -391 11 -520 5 -220 8
-302 20 -555 15 -300 24 -366 61 -434 55 -105 138 -160 270 -176 64 -8 877 -8
929 0 128 19 215 73 268 167 52 91 60 187 47 557 -5 157 -15 444 -20 636 -16
530 -25 623 -71 742 -22 54 -90 127 -145 156 -41 21 -136 44 -216 52 -62 7
-395 13 -415 9z m457 -133 c138 -26 209 -92 235 -218 13 -67 29 -337 40 -688
3 -99 8 -229 11 -290 3 -60 6 -234 7 -385 2 -303 -3 -342 -55 -404 -44 -53
-84 -66 -249 -77 -139 -10 -818 -7 -849 3 -140 46 -175 122 -186 398 -3 74 -7
141 -9 147 -5 15 -20 865 -20 1128 0 220 5 253 46 300 42 47 112 70 254 84
211 21 669 22 775 2z"/>
    <path d="M5055 8643 c-138 -3 -323 -23 -361 -39 -18 -8 -42 -26 -54 -41 l-22
-28 6 -345 c3 -190 8 -401 11 -470 3 -69 7 -215 10 -325 3 -110 10 -216 15
-236 13 -46 50 -81 96 -88 20 -3 252 -4 515 -1 l478 5 23 23 c32 32 35 94 21
417 -6 149 -16 431 -22 628 -12 425 -13 427 -106 472 -57 28 -57 28 -283 29
-125 1 -272 1 -327 -1z m572 -136 c16 -15 19 -47 24 -265 9 -317 19 -607 28
-797 4 -82 7 -175 7 -205 l-1 -55 -447 0 -448 0 -9 25 c-5 14 -9 32 -9 40 1
14 -8 214 -17 390 -2 47 -7 257 -11 467 l-7 382 24 10 c45 20 223 29 536 27
285 -1 314 -3 330 -19z"/>
    <path d="M4993 8224 l-26 -26 7 -334 c3 -183 9 -348 13 -366 11 -63 61 -88 99
-51 15 16 16 35 11 191 l-6 173 26 10 c15 5 33 9 41 7 8 -2 54 -79 104 -173
100 -189 119 -215 159 -215 29 0 44 14 51 45 5 21 -54 146 -140 300 l-51 89
39 33 c43 37 60 78 62 145 1 51 -18 93 -61 136 -44 43 -109 62 -213 62 -82 0
-91 -2 -115 -26z m225 -111 c33 -20 46 -55 35 -89 -13 -40 -50 -63 -111 -71
l-52 -6 0 91 0 91 28 4 c36 5 72 -2 100 -20z"/>
    <path d="M5186 6959 c-38 -30 -49 -64 -36 -105 30 -91 141 -99 185 -15 21 41
4 94 -39 120 -43 27 -76 27 -110 0z"/>
    <path d="M5590 6931 c-15 -29 -12 -56 8 -74 38 -35 102 -9 102 40 0 47 -88 75
-110 34z"/>
    <path d="M4920 6910 c-29 -29 -3 -80 42 -80 19 0 58 33 58 50 0 17 -39 50 -60
50 -11 0 -29 -9 -40 -20z"/>
    <path d="M2535 8829 c-55 -3 -119 -11 -143 -18 -49 -14 -103 -63 -133 -123
-29 -57 -98 -239 -148 -390 -24 -70 -47 -131 -53 -134 -14 -9 -28 15 -28 49 0
40 -24 81 -57 96 -64 30 -225 14 -265 -27 -15 -14 -23 -37 -26 -75 l-4 -54
-48 -12 c-89 -23 -145 -82 -175 -186 -16 -53 -17 -100 -11 -464 8 -509 13
-569 46 -646 23 -54 71 -102 128 -128 46 -21 58 -22 407 -22 l360 0 66 -37
c116 -64 236 -90 409 -90 177 1 309 44 444 143 27 20 43 26 51 19 7 -5 14 -8
16 -6 2 2 74 7 159 11 216 9 284 26 341 87 55 59 63 89 63 238 1 163 -14 771
-20 855 -10 132 -59 226 -138 265 -48 23 -56 35 -56 86 0 49 -32 104 -76 134
-36 24 -43 25 -183 23 -80 0 -165 -5 -187 -11 -23 -5 -46 -7 -50 -3 -5 3 -40
69 -79 145 -82 164 -148 245 -217 266 -48 14 -240 19 -393 9z m340 -124 c21
-8 51 -26 66 -42 15 -15 84 -136 153 -268 70 -131 138 -252 153 -267 31 -32
80 -47 138 -43 22 2 97 4 168 5 205 3 231 -21 243 -218 l7 -112 -147 0 c-143
0 -148 -1 -171 -25 -30 -29 -31 -36 -6 -66 19 -23 24 -24 169 -24 83 0 152 -2
155 -5 2 -3 7 -105 10 -226 l6 -222 -123 -7 c-137 -8 -166 -17 -181 -59 -17
-48 8 -56 167 -56 l138 0 0 -45 c0 -57 -21 -109 -53 -130 -29 -19 -113 -32
-250 -39 -93 -4 -99 -3 -124 20 -33 31 -51 30 -88 -2 -16 -14 -40 -34 -52 -44
-125 -107 -280 -155 -467 -144 -145 8 -320 77 -426 168 -30 25 -64 46 -76 46
-29 0 -47 -24 -42 -55 5 -24 3 -25 -46 -26 -28 -1 -67 -3 -86 -4 -87 -8 -373
-5 -408 5 -49 13 -90 44 -104 79 -19 47 -26 102 -14 106 6 2 127 6 269 8 229
4 260 7 277 22 26 24 25 49 -2 76 -23 21 -26 21 -290 14 l-267 -6 -3 233 c-2
128 -1 236 2 239 3 4 120 10 260 13 l255 7 23 25 c26 29 26 33 6 59 -14 19
-25 20 -286 17 l-270 -4 3 119 c6 195 19 204 314 210 110 2 215 9 232 14 18 6
41 23 52 38 11 15 49 116 85 225 77 230 133 358 167 377 50 27 395 37 464 14z
m713 -407 c7 -7 12 -29 12 -50 l0 -38 -130 1 c-102 0 -133 3 -145 15 -20 21
-38 54 -31 61 20 20 275 30 294 11z m-1674 -104 c10 -27 -3 -34 -60 -34 -46 0
-54 3 -54 18 0 28 9 32 61 32 34 0 49 -4 53 -16z"/>
    <path d="M2925 8454 c-5 -1 -121 -4 -258 -7 -230 -3 -249 -5 -275 -24 -15 -11
-28 -29 -30 -40 -4 -29 43 -64 77 -58 14 3 139 8 276 11 268 7 295 12 295 58
0 34 -50 69 -85 60z"/>
    <path d="M2983 8229 c-46 -17 -34 -78 18 -94 41 -13 75 35 51 71 -13 20 -47
32 -69 23z"/>
    <path d="M2275 8084 c-14 -15 -21 -32 -18 -42 9 -26 34 -52 50 -52 16 0 63 44
63 60 0 14 -46 60 -60 60 -6 0 -22 -12 -35 -26z"/>
    <path d="M2760 8092 c-302 -27 -529 -252 -585 -581 -62 -356 216 -709 578
-737 70 -6 131 0 237 21 3 0 30 9 60 19 182 62 354 269 400 481 16 73 14 220
-5 290 -9 33 -36 101 -60 151 -118 244 -357 380 -625 356z m138 -122 c342 -45
549 -461 387 -780 -63 -125 -141 -201 -265 -257 -129 -60 -308 -55 -441 12
-184 93 -315 319 -294 508 30 273 221 489 455 514 30 3 57 7 59 9 6 5 15 5 99
-6z"/>
    <path d="M2684 7849 c-72 -25 -160 -90 -209 -157 -56 -76 -80 -160 -80 -278 0
-95 2 -104 37 -175 81 -163 215 -250 388 -250 120 0 221 43 301 128 149 157
167 421 41 588 -44 58 -146 129 -216 150 -71 21 -188 18 -262 -6z m292 -145
c83 -49 128 -128 102 -181 -20 -42 -60 -43 -89 -1 -37 55 -72 89 -111 109 -42
22 -49 50 -21 81 23 25 67 22 119 -8z m-358 -377 c28 -50 90 -114 142 -148 22
-15 23 -19 12 -43 -14 -30 -39 -33 -85 -9 -58 29 -88 57 -128 117 -53 80 -51
136 7 136 16 0 30 -14 52 -53z"/>
    <path d="M3505 7953 c-50 -12 -73 -61 -45 -95 16 -20 27 -22 108 -22 99 0 132
15 132 60 0 40 -44 64 -114 63 -33 -1 -70 -4 -81 -6z"/>
    <path d="M1749 7910 c-57 -7 -79 -24 -79 -61 0 -46 30 -58 143 -56 80 0 101 4
117 19 27 25 25 50 -5 78 -26 25 -86 32 -176 20z"/>
    <path d="M3576 7501 c-24 -26 -17 -62 16 -80 24 -14 28 -14 47 3 24 22 21 64
-6 83 -23 18 -37 16 -57 -6z"/>
    <path d="M1947 7452 c-13 -14 -17 -38 -17 -91 0 -63 3 -75 25 -96 30 -30 39
-31 66 -4 17 17 20 29 15 58 -3 20 -6 55 -6 78 0 65 -46 96 -83 55z"/>
    <path d="M1790 7391 c-5 -11 -10 -26 -10 -34 0 -16 31 -47 48 -47 17 0 52 37
52 54 0 41 -71 62 -90 27z"/>
    <path d="M3338 8740 c-34 -35 -36 -63 -3 -95 33 -34 77 -33 104 1 37 47 18
104 -38 115 -29 6 -39 3 -63 -21z"/>
    <path d="M3856 8708 c-9 -12 -16 -30 -16 -40 0 -22 38 -58 62 -58 25 0 58 36
58 63 0 53 -75 77 -104 35z"/>
    <path d="M4148 8719 c-29 -16 -23 -67 8 -81 33 -15 58 -1 62 38 5 43 -32 66
-70 43z"/>
    <path d="M6102 8714 c-43 -30 -15 -114 38 -114 24 0 60 37 60 62 0 22 -43 68
-62 68 -8 0 -24 -7 -36 -16z"/>
    <path d="M3638 8672 c-22 -4 -35 -49 -21 -71 6 -9 23 -16 38 -16 34 0 50 23
42 57 -7 26 -28 37 -59 30z"/>
    <path d="M6923 8659 c-216 -33 -466 -128 -498 -189 -9 -17 -15 -46 -13 -63 3
-30 1 -31 -55 -43 -107 -25 -142 -56 -170 -151 -16 -53 -16 -137 -2 -653 3
-107 5 -265 6 -350 2 -248 14 -301 85 -380 45 -49 115 -76 220 -84 195 -15
1900 -23 2179 -11 158 8 212 23 259 75 61 68 61 65 61 715 l-1 590 -22 50
c-42 92 -102 133 -228 157 -47 8 -64 16 -64 27 0 104 -99 183 -292 233 -70 18
-111 22 -268 22 -209 0 -280 -14 -415 -79 -71 -34 -98 -37 -108 -11 -10 26
-116 87 -202 117 -84 30 -100 32 -250 35 -88 1 -188 -2 -222 -7z m432 -140
c59 -22 159 -81 172 -102 6 -10 12 -1537 6 -1537 -2 0 -24 15 -50 34 -123 87
-241 118 -468 122 -180 3 -289 -11 -405 -50 -41 -14 -76 -26 -77 -26 -6 0 0
1397 6 1425 8 42 100 86 258 125 207 51 435 55 558 9z m1025 -59 c41 -12 96
-35 123 -52 l47 -30 0 -680 0 -680 -22 5 c-160 40 -265 46 -409 23 -143 -23
-288 -78 -406 -152 -42 -27 -52 -30 -57 -18 -3 9 -6 346 -6 750 l0 734 46 30
c50 31 166 73 249 89 28 6 120 8 205 6 121 -2 171 -8 230 -25z m-1969 -252 c0
-24 1 -153 0 -288 0 -748 -4 -1020 -11 -1025 -19 -11 -77 62 -84 105 -17 107
-32 1154 -17 1193 10 26 58 55 94 56 13 1 17 -8 18 -41z m2290 -102 c2 -429
-7 -934 -17 -945 -2 -2 -6 -2 -9 0 -2 3 -5 187 -5 409 -2 664 -2 640 15 634
12 -5 15 -26 16 -98z m156 32 c17 -30 18 -79 21 -605 3 -524 2 -576 -14 -609
-16 -34 -39 -53 -50 -41 -7 7 -4 773 6 1270 0 27 18 20 37 -15z m-467 -1219
c55 -9 160 -48 160 -58 0 -3 -145 -7 -322 -9 -237 -2 -320 0 -311 9 18 18 173
59 248 65 39 4 72 8 74 10 4 4 73 -4 151 -17z m-1135 -24 c115 -41 97 -43
-251 -38 -181 3 -330 7 -332 8 -6 5 93 34 138 40 25 4 47 9 50 12 3 3 82 3
175 0 127 -3 183 -9 220 -22z"/>
    <path d="M6908 8280 c-98 -17 -158 -40 -170 -65 -27 -60 19 -80 122 -53 95 24
294 34 375 18 114 -22 130 -23 144 -6 31 37 -10 89 -85 106 -47 11 -320 11
-386 0z"/>
    <path d="M6960 8064 c-162 -26 -230 -54 -230 -95 0 -10 10 -25 23 -33 19 -13
29 -14 77 -1 108 27 211 38 310 32 93 -5 101 -4 114 15 22 30 2 66 -44 78 -56
15 -167 17 -250 4z"/>
    <path d="M7362 7988 c-19 -19 -14 -55 10 -72 19 -13 25 -14 43 -2 26 17 31 49
10 70 -19 19 -46 21 -63 4z"/>
    <path d="M6970 7835 c-8 -2 -49 -9 -90 -15 -110 -18 -158 -48 -145 -89 10 -31
46 -35 148 -15 158 31 362 20 454 -24 31 -15 34 -15 57 7 50 47 6 90 -123 120
-79 19 -243 27 -301 16z"/>
    <path d="M6938 7604 c-130 -20 -198 -53 -198 -95 0 -38 39 -43 154 -20 63 13
143 21 200 21 90 0 96 1 111 24 20 30 7 63 -28 71 -48 11 -166 11 -239 -1z"/>
    <path d="M7335 7547 c-22 -20 -24 -25 -12 -47 27 -54 111 -29 91 27 -14 39
-48 47 -79 20z"/>
    <path d="M6875 7385 c-89 -17 -129 -40 -133 -77 -5 -42 20 -53 86 -37 87 20
88 20 227 21 115 0 140 -3 208 -26 89 -30 103 -31 123 -12 41 42 -5 96 -104
121 -94 24 -305 29 -407 10z"/>
    <path d="M8130 8277 c-3 -2 -30 -7 -60 -11 -76 -8 -187 -39 -238 -65 -62 -32
-82 -90 -36 -108 10 -3 60 8 113 25 144 46 185 53 295 52 139 -2 134 -2 146
20 15 28 5 55 -27 69 -27 12 -184 27 -193 18z"/>
    <path d="M8075 8049 c-179 -27 -322 -101 -301 -154 11 -30 47 -33 108 -8 110
44 213 63 350 63 117 0 128 2 138 20 12 23 0 54 -28 69 -26 14 -200 21 -267
10z"/>
    <path d="M8119 7846 c-2 -3 -24 -7 -48 -11 -114 -17 -248 -74 -275 -117 -28
-46 41 -72 110 -43 120 51 195 67 326 69 59 1 109 4 111 6 16 18 15 50 -2 71
-18 22 -27 24 -119 26 -54 1 -101 1 -103 -1z"/>
    <path d="M7990 7589 c-94 -24 -173 -63 -200 -96 -18 -23 -19 -29 -6 -47 7 -12
21 -23 31 -24 9 -2 65 14 124 36 58 22 120 43 136 47 40 9 75 32 75 50 0 23
-37 55 -62 54 -13 0 -57 -9 -98 -20z"/>
    <path d="M8262 7598 c-29 -29 3 -88 49 -88 19 0 49 31 49 52 0 37 -70 64 -98
36z"/>
    <path d="M8040 7388 c-167 -32 -285 -106 -253 -156 17 -29 50 -25 161 16 119
45 234 65 331 58 35 -3 72 -1 82 5 24 13 24 51 0 73 -29 26 -198 28 -321 4z"/>
    <path d="M4004 8555 c-15 -23 -15 -27 0 -50 18 -27 36 -31 67 -15 26 14 24 55
-3 74 -31 22 -45 20 -64 -9z"/>
    <path d="M3763 8548 c-30 -38 -17 -78 25 -78 50 0 69 42 34 73 -22 20 -46 22
-59 5z"/>
    <path d="M3876 8399 c-30 -43 26 -103 69 -75 23 16 32 61 14 82 -18 21 -65 17
-83 -7z"/>
    <path d="M4105 8378 c-13 -20 -15 -60 -15 -274 1 -172 5 -257 13 -274 17 -34
51 -43 78 -21 22 17 22 21 20 281 -2 218 -5 267 -18 286 -20 30 -57 31 -78 2z"/>
    <path d="M1234 7635 c-30 -30 -30 -37 -1 -71 19 -22 29 -26 51 -20 38 9 54 48
33 79 -23 36 -55 40 -83 12z"/>
    <path d="M1079 7394 c-7 -9 -13 -42 -13 -80 l0 -64 -48 0 c-60 0 -97 -17 -104
-47 -11 -42 20 -63 93 -63 l63 0 0 -60 c0 -47 4 -64 20 -80 48 -48 90 -12 90
78 0 57 2 62 23 63 95 4 117 15 117 59 0 33 -27 49 -95 52 l-49 3 -2 62 c0 34
-7 69 -14 78 -16 20 -64 19 -81 -1z"/>
    <path d="M4166 7258 c-21 -29 -23 -339 -3 -378 16 -32 61 -39 89 -14 19 18 19
27 13 199 -8 193 -14 215 -61 215 -13 0 -30 -10 -38 -22z"/>
    <path d="M9160 7190 c-18 -18 -20 -33 -20 -181 0 -91 4 -169 10 -180 7 -13 21
-19 45 -19 24 0 38 6 45 19 6 11 10 88 10 178 0 127 -3 163 -16 181 -19 27
-48 28 -74 2z"/>
    <path d="M811 6849 c-25 -27 -26 -38 -5 -67 18 -27 55 -29 77 -4 20 22 21 42
5 64 -23 28 -54 31 -77 7z"/>
    <path d="M1227 6822 c-35 -38 -12 -102 36 -102 28 0 41 9 57 39 26 50 -55 105
-93 63z"/>
    <path d="M4177 6752 c-34 -37 -11 -92 38 -92 34 0 60 41 45 69 -10 20 -40 41
-58 41 -5 0 -16 -8 -25 -18z"/>
    <path d="M6136 6691 c-26 -29 -18 -82 17 -101 24 -13 30 -13 55 0 19 11 28 25
30 47 6 60 -64 96 -102 54z"/>
    <path d="M9157 6692 c-24 -26 -21 -68 5 -86 30 -21 43 -20 68 6 25 28 26 52 0
78 -25 25 -52 26 -73 2z"/>
    <path d="M970 6650 c-20 -20 -21 -32 -20 -248 0 -125 1 -232 0 -239 0 -6 -16
-21 -36 -34 -43 -26 -84 -109 -84 -169 0 -38 -2 -40 -31 -40 -21 0 -40 -10
-61 -30 l-29 -30 5 -332 c33 -1856 24 -1660 83 -1803 68 -166 199 -422 236
-462 25 -27 58 -30 79 -5 20 22 111 204 173 347 55 124 52 98 42 425 -3 124
-9 486 -12 805 -9 922 -11 1001 -32 1043 -14 28 -27 39 -57 48 -38 10 -40 13
-51 65 -14 69 -29 97 -70 134 l-33 30 -6 240 c-6 200 -10 242 -23 257 -21 24
-48 23 -73 -2z m80 -639 c5 -11 10 -33 10 -50 0 -31 -1 -31 -53 -31 l-53 0 4
38 c2 20 9 43 14 50 16 19 66 15 78 -7z m128 -298 l3 -93 -33 0 c-18 0 -97 -3
-175 -7 l-143 -6 0 96 0 96 68 4 c37 2 114 3 172 3 l105 -1 3 -92z m12 -395
c0 -106 3 -381 7 -610 l6 -417 -173 -3 c-94 -2 -173 -1 -175 2 -8 14 -20 1188
-12 1196 5 5 149 17 275 22 l72 3 0 -193z m5 -1150 c3 -3 8 -141 6 -169 -1
-14 -25 -17 -163 -23 -89 -3 -165 -3 -169 1 -4 5 -9 49 -10 98 l-3 90 104 5
c103 5 230 4 235 -2z m13 -338 c2 -13 -2 -27 -10 -31 -7 -5 -8 -9 -3 -9 21 0
12 -58 -22 -129 l-35 -74 -21 32 c-12 17 -29 31 -37 31 -8 0 -28 -20 -43 -45
-16 -25 -32 -45 -35 -45 -5 0 -76 153 -130 282 -4 8 129 14 258 12 70 -1 75
-3 78 -24z"/>
    <path d="M984 5358 l-27 -22 6 -382 c4 -210 9 -388 12 -396 3 -9 17 -21 30
-28 20 -11 28 -10 51 5 l27 17 -5 382 c-5 394 -7 414 -47 436 -14 7 -25 4 -47
-12z"/>
    <path d="M1298 6490 c-22 -13 -32 -63 -18 -89 12 -24 68 -42 91 -30 9 5 22 22
29 39 11 28 11 34 -7 58 -21 29 -66 39 -95 22z"/>
    <path d="M4018 6475 c-2 -1 -84 -6 -183 -9 -291 -11 -368 -26 -447 -88 -20
-16 -48 -48 -61 -72 -47 -84 -51 -123 -43 -486 3 -184 8 -499 11 -700 15
-1013 25 -1382 40 -1482 23 -150 93 -239 214 -275 44 -12 117 -16 358 -18 167
-1 306 -4 308 -6 2 -2 9 -58 15 -124 6 -66 12 -128 13 -138 1 -13 -15 -28 -53
-49 -154 -86 -263 -208 -348 -388 -83 -178 -108 -301 -99 -498 6 -161 30 -254
102 -399 95 -193 236 -346 393 -426 113 -58 169 -75 289 -91 381 -50 668 69
864 360 140 208 194 417 169 659 -25 244 -117 436 -290 605 -120 117 -264 199
-425 242 -98 26 -288 34 -392 16 -73 -13 -83 -13 -88 0 -12 33 -28 223 -19
231 5 5 50 11 99 15 108 7 168 26 217 66 129 106 95 322 -61 393 -39 18 -66
21 -183 22 l-136 0 -6 40 c-3 22 -8 94 -12 161 -8 167 2 186 131 227 106 34
212 41 229 14 15 -25 -11 -43 -83 -57 -180 -36 -222 -58 -206 -110 14 -44 51
-43 255 2 79 17 100 26 127 53 29 29 33 40 33 84 0 64 -29 125 -71 146 -56 29
-203 20 -339 -23 -71 -22 -93 -34 -132 -73 -28 -28 -51 -62 -57 -85 -12 -44
-13 -193 -2 -302 4 -40 4 -75 1 -77 -5 -3 -311 -8 -352 -6 -14 1 -16 24 -18
224 -1 122 -3 242 -5 267 -4 65 -7 421 -3 425 2 2 111 6 243 10 370 9 415 15
486 65 36 26 78 97 91 152 18 84 -31 201 -105 247 -58 35 -121 43 -337 42
-113 0 -244 -3 -292 -6 -56 -4 -89 -2 -93 5 -4 6 -9 64 -10 128 -12 373 -14
572 -8 573 5 0 17 2 28 4 11 2 128 7 260 10 262 6 374 12 419 20 47 9 116 55
141 94 95 143 25 319 -147 372 -28 9 -421 22 -430 14z m-511 -265 c9 -17 13
-78 13 -191 0 -151 -2 -167 -19 -183 -11 -10 -30 -16 -42 -14 -41 5 -49 40
-49 213 0 131 3 165 16 183 21 31 64 26 81 -8z m421 -1146 c27 -19 29 -55 3
-78 -16 -14 -42 -16 -207 -14 l-188 3 -16 28 c-14 27 -14 29 13 53 27 23 32
24 200 24 140 0 177 -3 195 -16z m-368 -324 c18 -18 20 -33 20 -130 0 -97 -2
-112 -20 -130 -25 -25 -32 -25 -60 -2 -19 16 -21 27 -23 130 -2 108 -1 115 22
133 29 24 36 24 61 -1z m1272 -1769 c172 -50 361 -180 449 -307 92 -133 145
-279 158 -434 18 -206 0 -307 -87 -475 -108 -210 -258 -336 -467 -395 -120
-34 -315 -32 -440 5 -120 35 -213 86 -297 164 -138 127 -226 286 -276 496 -12
53 -8 297 7 365 32 144 118 311 212 409 53 55 155 131 176 131 5 0 17 -24 27
-52 10 -29 21 -58 23 -65 2 -6 -17 -26 -44 -44 -181 -122 -303 -360 -303 -590
0 -206 76 -386 224 -534 67 -66 98 -89 176 -127 121 -59 178 -72 320 -71 134
0 197 15 315 76 154 79 281 245 331 437 25 94 25 323 0 405 -76 252 -251 419
-511 485 -92 24 -250 27 -336 6 l-56 -13 -22 60 c-14 40 -18 64 -12 70 16 16
209 33 291 25 41 -4 105 -16 142 -27z m-70 -230 c3 -3 -9 -63 -27 -133 -18
-70 -39 -159 -46 -198 -12 -69 -24 -87 -36 -52 -3 9 -41 89 -84 178 -42 89
-79 170 -81 180 -3 16 7 21 62 31 63 11 198 8 212 -6z m207 -74 c63 -37 161
-130 161 -151 0 -13 -284 -193 -335 -212 -16 -6 -17 -3 -11 22 4 16 9 38 11
49 16 85 69 304 77 318 11 22 21 19 97 -26z m-589 -2 c0 -8 39 -91 86 -185 47
-93 84 -174 82 -179 -1 -6 -51 20 -109 57 -59 37 -139 87 -178 111 -39 24 -71
48 -71 52 0 5 33 42 74 84 72 72 116 95 116 60z m-66 -355 c91 -61 166 -115
166 -120 0 -12 -24 -19 -90 -25 -30 -4 -108 -15 -173 -26 -65 -11 -122 -17
-126 -15 -23 15 28 296 53 296 2 0 79 -50 170 -110z m896 58 c17 -39 24 -79
28 -151 l5 -98 -39 6 c-22 3 -59 10 -84 15 -56 10 -174 29 -219 35 -72 9 -58
25 106 127 77 48 146 94 153 103 20 24 26 19 50 -37z m-690 -306 c0 -5 -27
-45 -60 -91 -33 -45 -85 -120 -115 -166 -30 -47 -58 -85 -63 -85 -11 0 -73 83
-109 145 -38 65 -65 137 -55 146 6 7 167 32 287 45 28 3 52 8 54 10 8 8 61 4
61 -4z m520 -18 c96 -15 179 -30 183 -34 17 -15 -59 -186 -110 -248 l-18 -22
-104 129 c-57 72 -114 140 -127 152 -26 24 -32 49 -11 49 6 0 91 -12 187 -26z
m-144 -236 c52 -65 99 -120 104 -123 19 -11 10 -24 -33 -50 -58 -33 -142 -61
-194 -64 l-43 -2 0 218 0 218 36 -40 c19 -22 78 -93 130 -157z m-281 -235 c-3
-9 -14 -11 -32 -8 -53 12 -168 56 -191 73 l-23 18 100 139 c55 77 110 153 123
168 l23 28 3 -203 c1 -111 0 -208 -3 -215z"/>
    <path d="M6363 6460 c-23 -5 -52 -14 -65 -21 -80 -40 -134 -145 -123 -234 16
-114 118 -205 230 -205 42 0 45 -2 45 -27 1 -16 3 -93 5 -173 17 -556 28
-1520 19 -1520 -15 0 -188 325 -514 965 -90 176 -173 338 -185 360 -12 22 -71
132 -130 245 -195 371 -230 423 -325 471 -59 29 -169 32 -220 5 -58 -30 -109
-86 -131 -146 -21 -53 -21 -70 -19 -450 1 -217 3 -438 5 -490 1 -52 6 -399 9
-770 7 -770 10 -848 36 -908 49 -112 150 -186 251 -186 47 1 64 6 102 33 26
19 57 54 73 84 l29 52 0 190 c0 184 -11 545 -20 673 -3 34 -7 163 -10 285 -6
224 -8 282 -21 460 -4 53 -4 97 -1 97 3 0 28 -42 55 -92 26 -51 137 -257 246
-458 109 -201 216 -399 237 -440 21 -41 51 -97 67 -125 16 -27 88 -160 161
-295 170 -311 230 -403 289 -441 65 -41 105 -52 181 -47 134 7 225 86 257 223
17 72 18 286 11 1965 l-2 455 65 6 c122 11 198 62 225 154 36 120 -26 248
-142 290 -41 16 -90 19 -348 21 -165 2 -319 -1 -342 -6z m302 -496 c18 -13 20
-30 25 -167 5 -162 0 -203 -31 -212 -64 -21 -83 35 -77 219 4 113 7 139 23
156 21 24 33 25 60 4z m-1507 -372 c22 -15 29 -63 31 -222 2 -144 1 -157 -18
-174 -24 -21 -55 -14 -76 17 -19 29 -24 331 -6 365 12 22 45 29 69 14z m1590
-1508 c41 -28 19 -94 -32 -94 -30 0 -46 18 -46 51 0 24 30 59 50 59 3 0 16 -7
28 -16z m-1564 -26 c10 -17 15 -77 19 -240 5 -189 4 -220 -10 -233 -22 -22
-52 -15 -77 18 -19 26 -21 44 -24 232 -3 137 0 210 7 224 16 29 66 28 85 -1z
m1576 -178 c11 -11 20 -29 20 -40 0 -23 -33 -60 -55 -60 -8 0 -24 9 -36 21
-24 24 -20 65 8 87 23 17 40 15 63 -8z"/>
    <path d="M7665 6459 c-160 -13 -247 -98 -246 -239 0 -47 6 -67 32 -110 62
-100 121 -119 393 -125 150 -3 201 -7 207 -17 5 -7 9 -326 9 -708 1 -1010 9
-1678 20 -1720 13 -49 46 -96 93 -134 36 -29 45 -31 116 -31 69 0 82 3 119 29
41 28 77 85 89 143 4 15 6 566 5 1223 -1 922 1 1196 11 1202 6 4 92 7 191 8
209 0 266 11 335 62 71 53 103 151 77 239 -31 102 -89 149 -207 168 -70 11
-1131 20 -1244 10z m201 -149 c51 -18 69 -78 28 -94 -33 -13 -247 -17 -275 -6
-51 22 -49 72 4 95 38 17 200 20 243 5z m409 -834 c13 -19 15 -60 13 -257 l-3
-233 -28 -16 c-27 -14 -29 -14 -52 12 -23 26 -23 31 -24 251 -1 211 1 225 20
245 26 29 55 28 74 -2z"/>
    <path d="M1940 6449 c-197 -17 -299 -78 -371 -221 -54 -107 -61 -174 -55 -528
3 -173 9 -565 12 -870 3 -305 8 -558 10 -561 2 -3 4 -138 5 -300 1 -401 13
-465 98 -542 104 -94 274 -68 332 50 l24 48 -2 420 c-1 231 -5 538 -9 683 -5
192 -4 262 5 262 6 0 11 -5 11 -10 0 -14 193 -413 507 -1049 154 -312 180
-360 226 -405 81 -81 178 -98 275 -50 91 45 142 140 128 238 -4 24 -42 115
-85 202 -89 182 -484 944 -617 1193 -13 25 -11 41 7 41 22 0 147 55 196 86 60
38 140 117 184 180 81 118 120 268 115 439 -4 123 -16 181 -56 271 -91 204
-273 359 -469 400 -41 8 -79 18 -84 21 -13 8 -300 10 -387 2z m-66 -155 c9 -4
21 -15 27 -25 14 -27 -3 -54 -48 -73 -76 -31 -97 -64 -95 -150 0 -33 -3 -67
-8 -77 -16 -28 -50 -30 -76 -4 -29 29 -32 85 -9 161 30 102 144 193 209 168z
m437 -315 c51 -16 105 -62 131 -112 29 -55 33 -160 10 -224 -30 -81 -120 -155
-221 -183 -52 -14 -228 -17 -241 -4 -12 13 -21 480 -10 510 9 24 10 24 151 24
78 0 159 -5 180 -11z m343 -385 c37 -37 -3 -135 -93 -225 -60 -60 -104 -79
-140 -59 -38 20 -26 55 33 100 48 37 116 121 116 145 0 14 42 55 56 55 7 0 20
-7 28 -16z"/>
    <path d="M9296 6294 c-25 -24 -20 -68 8 -84 57 -30 107 22 72 75 -19 29 -57
33 -80 9z"/>
    <path d="M5785 6245 c-59 -58 2 -148 74 -110 48 24 55 72 16 110 -13 14 -33
25 -45 25 -11 0 -32 -11 -45 -25z"/>
    <path d="M3023 6234 c-15 -23 -15 -29 -2 -52 22 -40 55 -47 85 -17 13 13 24
33 24 44 0 52 -77 70 -107 25z"/>
    <path d="M6066 5964 c-13 -12 -16 -40 -16 -134 0 -65 4 -130 10 -144 13 -36
56 -45 83 -17 21 20 22 30 19 144 -4 134 -15 167 -57 167 -13 0 -31 -7 -39
-16z"/>
    <path d="M9312 5957 c-47 -21 -34 -86 19 -100 24 -6 59 24 59 51 0 39 -42 65
-78 49z"/>
    <path d="M7415 5754 c-45 -23 -66 -45 -86 -89 -69 -150 85 -300 231 -225 168
86 105 330 -85 330 -16 0 -43 -7 -60 -16z"/>
    <path d="M8985 5744 c-189 -47 -299 -242 -242 -429 50 -170 261 -485 323 -485
61 0 228 255 295 450 30 89 31 207 2 272 -52 114 -163 189 -288 194 -38 2 -79
1 -90 -2z m123 -230 c98 -69 31 -213 -85 -182 -81 21 -88 142 -11 185 31 17
69 16 96 -3z"/>
    <path d="M4488 5733 c-17 -4 -30 -34 -32 -76 -1 -20 -8 -20 -194 -22 -169 -2
-195 -5 -212 -20 -27 -24 -25 -61 3 -79 18 -13 69 -14 321 -11 271 4 300 6
312 22 36 48 3 85 -86 95 -20 2 -26 9 -28 35 -4 43 -40 67 -84 56z"/>
    <path d="M6070 5540 c-53 -53 12 -137 75 -96 42 28 37 78 -12 104 -30 16 -40
15 -63 -8z"/>
    <path d="M7418 5220 c-50 -15 -90 -52 -117 -109 l-26 -56 3 -454 c1 -268 6
-470 12 -492 22 -80 91 -132 176 -132 118 -1 187 73 204 216 4 40 7 252 6 472
-1 384 -2 402 -22 445 -45 96 -138 140 -236 110z"/>
    <path d="M2899 4948 c-86 -56 -109 -78 -109 -103 0 -55 49 -58 139 -9 109 60
136 99 93 137 -28 26 -54 21 -123 -25z"/>
    <path d="M2855 4726 c-30 -30 -31 -37 -7 -65 18 -22 101 -47 188 -57 46 -6 53
-4 67 16 25 35 0 76 -56 90 -164 44 -164 44 -192 16z"/>
    <path d="M8932 4641 c-66 -23 -132 -85 -164 -155 -23 -51 -23 -53 -23 -484 l0
-433 53 -49 52 -48 2 -304 c1 -166 3 -321 4 -343 1 -22 3 -52 3 -67 2 -44 117
-158 160 -158 29 1 225 204 261 270 13 25 1 43 -75 112 l-40 37 49 50 c45 46
49 52 37 73 -7 13 -28 34 -46 48 -19 14 -35 28 -35 31 0 3 25 29 55 58 30 29
55 58 55 63 0 6 -27 38 -59 70 l-60 60 2 211 2 212 67 33 c103 50 102 45 95
295 -7 250 -16 287 -86 357 -77 76 -196 100 -309 61z m187 -121 c27 -13 46
-33 60 -63 19 -39 21 -63 23 -223 l2 -179 -67 -32 c-100 -49 -97 -36 -92 -338
l5 -259 40 -41 40 -41 -50 -49 c-28 -27 -50 -58 -50 -68 0 -11 18 -36 40 -56
22 -20 40 -41 40 -47 0 -6 -12 -21 -26 -35 -14 -13 -32 -36 -40 -50 -12 -24
-11 -30 9 -55 12 -16 37 -42 55 -58 18 -16 32 -34 30 -41 -2 -6 -27 -40 -57
-73 -54 -61 -79 -74 -98 -49 -9 11 -23 405 -23 671 l0 98 -50 51 -50 50 -2
181 c-4 499 -2 569 16 608 49 102 155 145 245 98z"/>
    <path d="M3017 4252 c-24 -26 -21 -55 7 -81 52 -49 124 6 91 69 -13 24 -22 30
-49 30 -19 0 -40 -8 -49 -18z"/>
    <path d="M7833 3990 c-23 -9 -43 -39 -43 -62 0 -23 39 -58 63 -58 31 0 55 20
62 52 5 21 1 33 -19 52 -27 28 -30 29 -63 16z"/>
    <path d="M5769 3780 c-9 -5 -22 -23 -29 -40 -11 -28 -11 -34 7 -58 25 -34 81
-42 105 -15 33 36 24 93 -18 111 -30 14 -44 15 -65 2z"/>
    <path d="M7477 3720 c-51 -16 -291 -140 -338 -174 -49 -36 -79 -86 -79 -132 0
-43 38 -111 74 -134 70 -43 132 -24 359 107 90 52 106 73 83 108 -32 48 -49
49 -128 5 -40 -22 -110 -59 -155 -82 -75 -38 -84 -41 -98 -27 -9 9 -13 23 -9
32 6 18 108 79 244 147 98 49 159 55 215 20 41 -25 52 -43 99 -155 45 -108 52
-97 -121 -175 -65 -29 -156 -70 -201 -91 -46 -22 -86 -39 -88 -39 -2 0 -32
-13 -68 -29 -35 -17 -132 -59 -215 -95 -83 -36 -174 -77 -203 -92 -51 -26 -53
-26 -98 -11 -163 57 -369 54 -516 -8 l-31 -13 -113 121 c-113 120 -113 121
-91 136 43 30 104 96 117 128 30 69 5 136 -61 167 -63 30 -138 12 -372 -90
-17 -8 -33 -14 -36 -14 -18 0 -136 -63 -154 -82 -64 -68 -56 -170 17 -232 68
-57 176 -57 289 0 36 19 71 34 76 34 6 0 35 -28 65 -63 110 -125 183 -196 204
-199 29 -4 276 -374 276 -413 0 -3 -6 -5 -12 -4 -16 0 -78 79 -165 206 -92
136 -131 183 -154 183 -24 0 -88 -57 -135 -121 -79 -108 -126 -242 -125 -360
0 -118 48 -173 127 -146 20 7 22 2 33 -55 28 -143 127 -287 238 -345 95 -50
155 -64 281 -63 251 1 405 95 510 312 l47 97 62 1 62 0 64 -108 c87 -146 88
-148 38 -157 -28 -5 -49 -16 -67 -38 -25 -30 -26 -36 -21 -108 6 -86 17 -114
49 -125 26 -8 262 -6 317 2 63 10 71 25 71 133 0 53 -4 101 -8 106 -20 27 -50
40 -104 45 l-60 5 -30 55 c-16 30 -49 90 -73 132 l-43 77 24 16 c37 24 64 75
64 121 0 114 -87 190 -202 176 -35 -4 -38 -2 -53 34 -8 21 -14 42 -12 47 1 4
38 28 82 51 44 23 188 106 320 184 132 78 243 138 247 134 4 -4 10 -22 14 -39
5 -25 2 -33 -14 -42 -56 -30 -165 -204 -196 -312 -39 -141 -29 -240 28 -264
18 -8 42 -12 52 -9 17 5 20 -1 22 -58 5 -122 73 -265 165 -343 145 -124 406
-150 591 -60 173 85 296 293 296 503 0 94 -32 210 -78 282 -92 144 -254 236
-440 247 -79 5 -95 9 -103 26 -18 33 4 42 94 40 59 -1 102 -8 155 -27 72 -25
73 -25 92 -6 11 11 20 28 20 38 0 30 -51 69 -120 92 -57 19 -80 22 -186 18
l-121 -5 -66 166 c-37 91 -86 220 -111 286 -75 205 -101 248 -180 297 -43 27
-62 32 -126 34 -41 2 -88 -1 -103 -6z m-1477 -409 c0 -23 -162 -134 -264 -182
-79 -37 -144 -38 -157 -2 -13 35 14 53 168 112 76 30 152 60 168 67 36 15 85
18 85 5z m1854 -168 c14 -34 26 -66 26 -71 0 -5 -51 -37 -112 -72 -62 -35
-178 -103 -258 -150 -184 -110 -398 -230 -410 -230 -5 0 -22 19 -39 43 -16 23
-54 66 -85 96 l-55 55 27 12 c15 7 169 76 342 153 173 76 362 162 420 189 58
28 108 47 112 44 3 -4 18 -35 32 -69z m134 -315 c28 -62 73 -169 101 -238 27
-69 70 -173 95 -232 51 -120 55 -138 27 -138 -25 0 -39 24 -101 166 -160 366
-216 514 -207 539 14 36 37 10 85 -97z m-1293 -33 c137 -46 236 -133 299 -261
41 -85 50 -129 26 -129 -8 0 -32 32 -53 73 -97 184 -281 292 -479 279 -45 -4
-99 -9 -118 -12 -31 -6 -37 -3 -50 19 -7 14 -10 29 -6 33 4 4 37 13 74 20 95
18 215 9 307 -22z m1174 -137 c6 -17 -1 -33 -34 -77 -50 -65 -100 -158 -117
-212 -13 -44 -28 -52 -28 -15 0 70 75 233 138 299 31 33 31 33 41 5z m-1337
-51 c-36 -73 -41 -82 -49 -84 -12 -3 -65 88 -59 103 5 13 63 22 102 16 21 -4
21 -5 6 -35z m1801 23 c107 -33 200 -106 253 -199 32 -56 47 -138 42 -227 -7
-112 -46 -194 -135 -283 -93 -93 -150 -115 -293 -116 -97 0 -110 2 -170 31
-78 37 -141 99 -178 174 -25 51 -27 64 -27 185 0 114 3 137 24 185 26 61 72
140 82 140 7 0 79 -173 79 -190 0 -5 -13 -7 -30 -3 -50 9 -93 -47 -57 -74 6
-5 32 -15 57 -22 67 -19 90 -30 90 -40 0 -5 -28 -29 -62 -53 -71 -49 -86 -84
-47 -111 26 -19 38 -15 111 35 82 54 86 53 83 -36 -2 -41 -1 -84 2 -95 6 -24
41 -36 78 -27 24 6 25 8 25 101 0 86 2 95 18 95 11 0 27 -9 38 -21 10 -12 38
-32 62 -46 42 -25 43 -25 63 -7 35 31 22 72 -36 111 -27 19 -51 40 -53 47 -1
7 32 24 80 41 70 25 84 34 93 59 8 24 6 31 -13 46 -24 20 -52 16 -135 -19
l-42 -18 -33 76 c-52 118 -102 249 -102 266 0 21 54 19 133 -5z m-1631 -55
c-2 -16 -7 -34 -12 -40 -26 -32 -121 -238 -116 -251 5 -14 19 -15 89 -10 45 3
199 8 342 12 240 6 261 6 275 -11 12 -15 12 -20 -1 -43 -20 -36 -43 -38 -437
-41 -331 -2 -352 0 -352 36 0 19 124 307 150 351 15 24 26 32 43 30 18 -2 21
-8 19 -33z m-592 -8 c0 -6 -18 -38 -39 -71 -43 -66 -74 -139 -85 -198 -6 -35
-27 -50 -40 -30 -12 21 16 141 48 207 44 88 82 131 102 114 8 -6 14 -16 14
-22z m721 -94 c45 -73 45 -73 -21 -73 -33 0 -60 4 -60 9 0 19 40 101 49 101 5
0 19 -17 32 -37z m-568 -114 l55 -76 -51 -2 c-39 -1 -56 -7 -69 -22 -43 -51
-5 -80 97 -72 69 5 73 5 80 -17 5 -15 2 -25 -6 -31 -56 -34 -109 -87 -109
-108 0 -20 30 -51 50 -51 9 0 44 24 76 54 33 30 65 51 71 48 10 -6 21 -91 22
-165 1 -34 37 -52 76 -37 24 9 25 13 25 100 l0 90 63 1 c34 0 110 3 170 5 125
6 127 4 78 -81 -41 -71 -103 -128 -180 -167 -65 -33 -68 -33 -201 -33 -128 0
-138 1 -193 28 -73 36 -147 110 -182 181 -59 120 -39 348 38 444 13 16 15 14
90 -89z m1262 -674 l0 -30 -102 -3 -103 -3 0 30 c0 16 6 32 13 35 6 2 53 4
102 3 l90 -2 0 -30z"/>
    <path d="M2240 3692 c-48 -15 -64 -67 -34 -110 32 -46 124 -16 124 41 -1 43
-50 81 -90 69z"/>
    <path d="M2435 3375 c-39 -38 -30 -86 22 -114 45 -24 103 14 103 67 0 31 -43
72 -75 72 -14 0 -37 -11 -50 -25z"/>
    <path d="M1337 3362 c-18 -19 -22 -49 -9 -68 8 -13 46 -34 61 -34 19 0 51 39
51 63 0 50 -70 76 -103 39z"/>
    <path d="M4828 3369 c-38 -22 -8 -89 39 -89 23 0 53 29 53 53 0 18 -37 47 -60
47 -8 0 -23 -5 -32 -11z"/>
    <path d="M3220 3228 c-23 -25 -25 -37 -8 -72 29 -64 118 -41 118 30 0 18 -7
40 -16 48 -22 23 -70 20 -94 -6z"/>
    <path d="M8504 3223 c-59 -44 -44 -120 28 -138 41 -10 83 34 74 78 -4 17 -12
37 -19 44 -16 16 -69 26 -83 16z"/>
    <path d="M1875 3189 c-174 -4 -246 -9 -295 -23 -276 -74 -439 -311 -442 -641
-1 -225 71 -436 212 -624 142 -188 313 -276 557 -288 188 -9 362 26 454 92
l47 33 45 -21 46 -22 1 -55 c4 -166 29 -222 115 -253 44 -15 77 -17 265 -13
333 8 360 25 360 232 0 87 1 91 26 104 42 23 49 47 54 195 l5 140 53 8 c67 11
124 61 141 125 14 49 13 256 0 328 -16 85 -70 135 -162 149 -33 5 -47 12 -48
24 -7 160 -20 204 -74 249 -44 35 -95 52 -164 52 -47 0 -51 2 -51 25 0 13 -5
36 -12 50 -20 45 -55 55 -187 55 -111 0 -122 -2 -147 -23 -17 -15 -29 -38 -33
-63 -6 -39 -6 -39 -56 -42 -50 -3 -50 -3 -68 38 -24 56 -69 96 -147 132 -82
38 -174 45 -495 37z m437 -139 c39 -14 98 -62 98 -79 0 -6 -17 -19 -39 -30
-21 -11 -81 -62 -133 -113 l-95 -93 -43 18 c-24 11 -78 22 -121 24 l-78 6 -36
91 c-20 50 -50 115 -66 144 l-30 54 253 -5 c172 -3 265 -8 290 -17z m-618 -52
c47 -85 100 -223 93 -243 -4 -8 -17 -19 -29 -24 -13 -6 -45 -30 -72 -55 l-50
-45 -30 18 c-71 44 -268 151 -277 151 -15 0 -10 15 17 56 66 100 148 159 257
189 28 7 53 14 54 14 1 1 18 -27 37 -61z m1206 -7 c0 -16 -27 -19 -112 -12
-10 0 -18 6 -18 11 0 6 28 10 65 10 36 0 65 -4 65 -9z m234 -141 c14 -5 30
-18 35 -29 7 -12 13 -136 16 -313 3 -161 7 -380 10 -485 3 -142 1 -195 -8
-200 -20 -12 -648 -16 -679 -4 -36 14 -65 62 -72 120 -3 25 -8 159 -12 296 -3
138 -10 258 -15 267 -12 23 -52 33 -77 19 -12 -6 -72 -68 -135 -139 -169 -187
-214 -222 -285 -222 -74 0 -120 19 -163 68 -39 45 -69 120 -69 174 0 90 60
187 141 229 76 38 192 46 234 15 14 -10 4 -24 -67 -101 -142 -154 -156 -179
-121 -217 16 -18 39 -23 66 -12 9 3 80 78 159 167 175 198 284 312 322 340 17
12 48 24 70 28 65 10 622 10 650 -1z m-1607 -284 c48 -35 62 -50 52 -56 -9 -6
-14 -36 -15 -101 -2 -90 -3 -93 -30 -107 -49 -26 -216 -93 -220 -89 -12 12
-44 148 -54 228 -10 86 -8 121 16 242 l6 28 89 -48 c49 -27 119 -70 156 -97z
m1859 -47 c16 -18 19 -40 22 -161 3 -134 3 -141 -19 -164 -13 -14 -34 -24 -50
-24 l-27 0 -4 178 c-3 97 -3 180 -1 185 8 15 61 6 79 -14z m-1075 -407 c1
-114 2 -225 3 -247 1 -37 -3 -42 -46 -71 -40 -27 -132 -54 -144 -42 -2 2 -10
53 -19 112 -8 59 -22 129 -32 156 l-17 48 90 89 c91 89 144 150 144 166 0 4 4
6 9 2 6 -3 11 -96 12 -213z m-650 36 c32 -35 59 -64 59 -66 0 -2 -25 -33 -55
-68 -60 -71 -67 -95 -33 -118 46 -32 59 -24 143 83 47 60 51 63 85 57 19 -3
47 -6 61 -6 17 0 29 -8 36 -23 13 -27 39 -153 47 -219 7 -57 -5 -63 -103 -53
-108 11 -133 16 -197 40 -80 30 -134 65 -194 125 -50 50 -140 176 -140 195 0
9 200 111 223 114 5 1 35 -27 68 -61z m1415 -456 l42 -4 -2 -86 -1 -86 -30 -8
c-16 -4 -118 -10 -227 -13 -243 -7 -238 -9 -238 114 l0 80 43 4 c57 5 362 5
413 -1z"/>
    <path d="M1545 2880 c-22 -25 -13 -64 20 -86 31 -20 67 -12 84 20 12 21 10 28
-10 55 -27 36 -67 41 -94 11z"/>
    <path d="M2541 2746 c-7 -8 -14 -43 -14 -77 -1 -50 2 -63 18 -75 23 -17 57
-18 73 -2 13 13 16 126 4 145 -13 21 -66 27 -81 9z"/>
    <path d="M2756 2744 c-23 -23 -21 -115 3 -145 16 -20 23 -22 47 -14 33 12 43
46 33 114 -8 59 -48 81 -83 45z"/>
    <path d="M2960 2741 c-15 -30 -12 -113 6 -139 20 -29 60 -29 75 0 14 27 13
127 -3 145 -16 20 -66 16 -78 -6z"/>
    <path d="M2760 2521 c-56 -17 -110 -53 -143 -93 -63 -78 -72 -104 -71 -203 0
-107 14 -144 79 -214 64 -69 128 -95 230 -94 70 1 87 4 137 32 75 42 114 84
139 150 61 163 -20 351 -179 411 -54 20 -144 25 -192 11z m195 -140 c74 -53
104 -153 71 -233 -23 -54 -86 -105 -140 -113 -95 -15 -168 20 -208 98 -39 77
-21 185 40 240 60 54 168 58 237 8z"/>
    <path d="M2769 2312 c-25 -23 -33 -38 -36 -78 -5 -47 -3 -53 30 -87 29 -31 41
-37 77 -37 37 0 48 5 82 40 56 60 50 131 -14 170 -48 29 -101 26 -139 -8z"/>
    <path d="M1360 2471 c-24 -46 -5 -81 45 -81 36 0 55 15 55 45 0 48 -78 76
-100 36z"/>
    <path d="M2686 1625 c-52 -52 38 -114 101 -70 21 15 22 45 2 71 -14 17 -85 17
-103 -1z"/>
    <path d="M1036 3067 c-38 -28 -13 -97 35 -97 23 0 42 25 42 57 0 26 -25 53
-48 53 -6 0 -19 -6 -29 -13z"/>
    <path d="M3717 3052 c-39 -43 -8 -114 50 -114 29 0 63 33 63 62 0 55 -78 91
-113 52z"/>
    <path d="M3500 2990 c-38 -38 -16 -100 35 -100 23 0 65 34 65 53 0 13 -22 51
-34 59 -19 13 -45 9 -66 -12z"/>
    <path d="M3636 2829 c-35 -27 -35 -71 0 -105 19 -20 31 -24 52 -20 60 15 80
79 37 121 -30 30 -54 31 -89 4z"/>
    <path d="M5643 2698 c-23 -30 -23 -49 2 -74 30 -30 46 -30 74 0 21 22 22 27 9
53 -15 31 -67 44 -85 21z"/>
    <path d="M8946 2368 c-22 -32 -20 -61 7 -86 63 -59 146 23 87 86 -27 29 -74
29 -94 0z"/>
    <path d="M5800 1950 c-36 -36 -15 -90 34 -90 29 0 46 18 46 51 0 46 -49 70
-80 39z"/>
    <path d="M3520 1700 c-25 -25 -26 -52 -2 -73 53 -48 124 12 81 67 -24 31 -52
33 -79 6z"/>
    <path d="M5954 1610 c-12 -5 -26 -22 -32 -39 -9 -25 -7 -34 9 -56 35 -44 91
-27 105 32 6 21 1 31 -20 50 -30 25 -31 26 -62 13z"/>
    <path d="M5740 1592 c-44 -36 -17 -112 40 -112 57 0 84 76 40 112 -28 23 -52
23 -80 0z"/>
    <path d="M6960 1480 c-45 -45 -29 -112 33 -134 77 -28 121 101 47 139 -39 20
-56 19 -80 -5z"/>
    <path d="M6075 1454 c-14 -11 -20 -27 -20 -62 l-1 -47 -234 -3 c-158 -2 -242
-7 -259 -15 -32 -15 -39 -52 -15 -78 16 -18 35 -19 400 -19 l383 0 15 22 c39
55 4 90 -92 93 -37 1 -70 3 -74 4 -5 0 -8 21 -8 45 0 69 -46 98 -95 60z"/>
    <path d="M3616 1428 c-22 -31 -20 -51 7 -76 29 -27 51 -28 77 -2 27 27 26 65
-2 84 -32 22 -64 20 -82 -6z"/>
  </g>
</svg>
